<mxfile host="Electron" agent="Mozilla/5.0 (Windows NT 10.0; Win64; x64) AppleWebKit/537.36 (KHTML, like Gecko) draw.io/24.7.17 Chrome/128.0.6613.36 Electron/32.0.1 Safari/537.36" version="24.7.17">
  <diagram name="Страница — 1" id="OjyKbesL7s87UktfNCdT">
    <mxGraphModel dx="1182" dy="723" grid="1" gridSize="10" guides="1" tooltips="1" connect="1" arrows="1" fold="1" page="1" pageScale="1" pageWidth="827" pageHeight="1169" math="0" shadow="0">
      <root>
        <mxCell id="0" />
        <mxCell id="1" parent="0" />
        <mxCell id="Yk9ex0DbGW7BSxU4YWAJ-6" style="edgeStyle=orthogonalEdgeStyle;rounded=0;orthogonalLoop=1;jettySize=auto;html=1;entryX=0.5;entryY=0;entryDx=0;entryDy=0;" parent="1" source="Yk9ex0DbGW7BSxU4YWAJ-4" target="Yk9ex0DbGW7BSxU4YWAJ-5" edge="1">
          <mxGeometry relative="1" as="geometry" />
        </mxCell>
        <mxCell id="Yk9ex0DbGW7BSxU4YWAJ-4" value="&lt;font style=&quot;font-size: 25px;&quot;&gt;Начало&lt;/font&gt;" style="rounded=1;whiteSpace=wrap;html=1;" parent="1" vertex="1">
          <mxGeometry x="10" y="10" width="120" height="60" as="geometry" />
        </mxCell>
        <mxCell id="Yk9ex0DbGW7BSxU4YWAJ-9" style="edgeStyle=orthogonalEdgeStyle;rounded=0;orthogonalLoop=1;jettySize=auto;html=1;entryX=0.5;entryY=0;entryDx=0;entryDy=0;" parent="1" source="Yk9ex0DbGW7BSxU4YWAJ-5" target="Yk9ex0DbGW7BSxU4YWAJ-8" edge="1">
          <mxGeometry relative="1" as="geometry" />
        </mxCell>
        <mxCell id="Yk9ex0DbGW7BSxU4YWAJ-5" value="&lt;font style=&quot;font-size: 20px;&quot;&gt;a = -10&lt;/font&gt;&lt;div style=&quot;font-size: 20px;&quot;&gt;&lt;font style=&quot;font-size: 20px;&quot;&gt;b = -1&lt;/font&gt;&lt;/div&gt;&lt;div style=&quot;font-size: 20px;&quot;&gt;&lt;font style=&quot;font-size: 20px;&quot;&gt;s = a&lt;/font&gt;&lt;/div&gt;" style="rounded=0;whiteSpace=wrap;html=1;" parent="1" vertex="1">
          <mxGeometry x="10" y="90" width="120" height="70" as="geometry" />
        </mxCell>
        <mxCell id="Yk9ex0DbGW7BSxU4YWAJ-11" style="edgeStyle=orthogonalEdgeStyle;rounded=0;orthogonalLoop=1;jettySize=auto;html=1;entryX=0.5;entryY=0;entryDx=0;entryDy=0;" parent="1" source="Yk9ex0DbGW7BSxU4YWAJ-8" edge="1">
          <mxGeometry relative="1" as="geometry">
            <mxPoint x="70" y="260" as="targetPoint" />
          </mxGeometry>
        </mxCell>
        <mxCell id="Yk9ex0DbGW7BSxU4YWAJ-8" value="&lt;font style=&quot;font-size: 20px;&quot;&gt;&quot;Цикл while&quot;&lt;/font&gt;&lt;div style=&quot;font-size: 20px;&quot;&gt;s &amp;gt;= b&lt;/div&gt;" style="shape=loopLimit;whiteSpace=wrap;html=1;" parent="1" vertex="1">
          <mxGeometry x="10" y="180" width="120" height="60" as="geometry" />
        </mxCell>
        <mxCell id="Yk9ex0DbGW7BSxU4YWAJ-13" style="edgeStyle=orthogonalEdgeStyle;rounded=0;orthogonalLoop=1;jettySize=auto;html=1;entryX=0.5;entryY=0;entryDx=0;entryDy=0;" parent="1" target="Yk9ex0DbGW7BSxU4YWAJ-12" edge="1">
          <mxGeometry relative="1" as="geometry">
            <mxPoint x="70" y="320" as="sourcePoint" />
          </mxGeometry>
        </mxCell>
        <mxCell id="Yk9ex0DbGW7BSxU4YWAJ-15" style="edgeStyle=orthogonalEdgeStyle;rounded=0;orthogonalLoop=1;jettySize=auto;html=1;entryX=0.5;entryY=1;entryDx=0;entryDy=0;" parent="1" source="Yk9ex0DbGW7BSxU4YWAJ-12" target="Yk9ex0DbGW7BSxU4YWAJ-14" edge="1">
          <mxGeometry relative="1" as="geometry" />
        </mxCell>
        <mxCell id="Yk9ex0DbGW7BSxU4YWAJ-12" value="&lt;font style=&quot;font-size: 20px;&quot;&gt;s = s + 0.1&lt;/font&gt;" style="rounded=0;whiteSpace=wrap;html=1;" parent="1" vertex="1">
          <mxGeometry x="10" y="340" width="120" height="30" as="geometry" />
        </mxCell>
        <mxCell id="Yk9ex0DbGW7BSxU4YWAJ-17" style="edgeStyle=orthogonalEdgeStyle;rounded=0;orthogonalLoop=1;jettySize=auto;html=1;entryX=0.5;entryY=0;entryDx=0;entryDy=0;" parent="1" source="Yk9ex0DbGW7BSxU4YWAJ-14" target="Yk9ex0DbGW7BSxU4YWAJ-16" edge="1">
          <mxGeometry relative="1" as="geometry" />
        </mxCell>
        <mxCell id="Yk9ex0DbGW7BSxU4YWAJ-14" value="&lt;font style=&quot;font-size: 20px;&quot;&gt;&quot;Цикл while&quot;&lt;/font&gt;" style="shape=loopLimit;whiteSpace=wrap;html=1;direction=west;" parent="1" vertex="1">
          <mxGeometry x="10" y="390" width="120" height="30" as="geometry" />
        </mxCell>
        <mxCell id="Yk9ex0DbGW7BSxU4YWAJ-16" value="&lt;font style=&quot;font-size: 25px;&quot;&gt;Конец&lt;/font&gt;" style="rounded=1;whiteSpace=wrap;html=1;" parent="1" vertex="1">
          <mxGeometry x="10" y="440" width="120" height="60" as="geometry" />
        </mxCell>
        <mxCell id="LjMTCCTFGMiPnI9_086--3" style="edgeStyle=orthogonalEdgeStyle;rounded=0;orthogonalLoop=1;jettySize=auto;html=1;endArrow=none;endFill=0;dashed=1;" edge="1" parent="1" source="LjMTCCTFGMiPnI9_086--1">
          <mxGeometry relative="1" as="geometry">
            <mxPoint x="200" y="290" as="targetPoint" />
          </mxGeometry>
        </mxCell>
        <mxCell id="LjMTCCTFGMiPnI9_086--1" value="&lt;font style=&quot;font-size: 20px;&quot;&gt;f(s)&lt;/font&gt;" style="shape=process;whiteSpace=wrap;html=1;backgroundOutline=1;" vertex="1" parent="1">
          <mxGeometry x="10" y="260" width="120" height="60" as="geometry" />
        </mxCell>
        <mxCell id="LjMTCCTFGMiPnI9_086--4" value="&lt;div style=&quot;&quot;&gt;&lt;span style=&quot;font-size: 20px; background-color: initial;&quot;&gt;// Обращение к функции f,&lt;/span&gt;&lt;/div&gt;&lt;div style=&quot;&quot;&gt;&lt;font style=&quot;font-size: 20px;&quot;&gt;// где аргументом &lt;i&gt;x&lt;/i&gt;&lt;/font&gt;&lt;/div&gt;&lt;div style=&quot;&quot;&gt;&lt;font style=&quot;font-size: 20px;&quot;&gt;// становится переменная &lt;i&gt;s&lt;/i&gt;&lt;/font&gt;&lt;/div&gt;" style="text;html=1;align=left;verticalAlign=middle;resizable=0;points=[];autosize=1;strokeColor=none;fillColor=none;" vertex="1" parent="1">
          <mxGeometry x="190" y="245" width="280" height="90" as="geometry" />
        </mxCell>
        <mxCell id="LjMTCCTFGMiPnI9_086--47" style="edgeStyle=orthogonalEdgeStyle;rounded=0;orthogonalLoop=1;jettySize=auto;html=1;exitX=0.5;exitY=1;exitDx=0;exitDy=0;entryX=0.5;entryY=0;entryDx=0;entryDy=0;" edge="1" parent="1" source="LjMTCCTFGMiPnI9_086--6" target="LjMTCCTFGMiPnI9_086--13">
          <mxGeometry relative="1" as="geometry" />
        </mxCell>
        <mxCell id="LjMTCCTFGMiPnI9_086--6" value="&lt;font style=&quot;font-size: 25px;&quot;&gt;Начало f(x)&lt;/font&gt;" style="rounded=1;whiteSpace=wrap;html=1;" vertex="1" parent="1">
          <mxGeometry x="460" y="10" width="140" height="60" as="geometry" />
        </mxCell>
        <mxCell id="LjMTCCTFGMiPnI9_086--9" style="edgeStyle=orthogonalEdgeStyle;rounded=0;orthogonalLoop=1;jettySize=auto;html=1;entryX=0.5;entryY=0;entryDx=0;entryDy=0;" edge="1" parent="1" source="LjMTCCTFGMiPnI9_086--13" target="LjMTCCTFGMiPnI9_086--15">
          <mxGeometry relative="1" as="geometry" />
        </mxCell>
        <mxCell id="LjMTCCTFGMiPnI9_086--10" value="&lt;font style=&quot;font-size: 20px;&quot;&gt;True&lt;/font&gt;" style="edgeLabel;html=1;align=center;verticalAlign=middle;resizable=0;points=[];" vertex="1" connectable="0" parent="LjMTCCTFGMiPnI9_086--9">
          <mxGeometry x="-0.2687" relative="1" as="geometry">
            <mxPoint x="13" as="offset" />
          </mxGeometry>
        </mxCell>
        <mxCell id="LjMTCCTFGMiPnI9_086--11" style="edgeStyle=orthogonalEdgeStyle;rounded=0;orthogonalLoop=1;jettySize=auto;html=1;entryX=0.5;entryY=0;entryDx=0;entryDy=0;" edge="1" parent="1" source="LjMTCCTFGMiPnI9_086--13" target="LjMTCCTFGMiPnI9_086--22">
          <mxGeometry relative="1" as="geometry" />
        </mxCell>
        <mxCell id="LjMTCCTFGMiPnI9_086--12" value="&lt;font style=&quot;font-size: 20px;&quot;&gt;False&lt;/font&gt;" style="edgeLabel;html=1;align=center;verticalAlign=middle;resizable=0;points=[];" vertex="1" connectable="0" parent="LjMTCCTFGMiPnI9_086--11">
          <mxGeometry x="-0.1455" y="-1" relative="1" as="geometry">
            <mxPoint as="offset" />
          </mxGeometry>
        </mxCell>
        <mxCell id="LjMTCCTFGMiPnI9_086--13" value="&lt;font style=&quot;font-size: 20px;&quot;&gt;x &amp;lt; -8&lt;/font&gt;" style="rhombus;whiteSpace=wrap;html=1;" vertex="1" parent="1">
          <mxGeometry x="460" y="90" width="140" height="60" as="geometry" />
        </mxCell>
        <mxCell id="LjMTCCTFGMiPnI9_086--14" style="edgeStyle=orthogonalEdgeStyle;rounded=0;orthogonalLoop=1;jettySize=auto;html=1;entryX=0.5;entryY=0;entryDx=0;entryDy=0;" edge="1" parent="1" source="LjMTCCTFGMiPnI9_086--15" target="LjMTCCTFGMiPnI9_086--17">
          <mxGeometry relative="1" as="geometry" />
        </mxCell>
        <mxCell id="LjMTCCTFGMiPnI9_086--15" value="&lt;font style=&quot;font-size: 20px;&quot;&gt;x = x**2&lt;/font&gt;" style="rounded=0;whiteSpace=wrap;html=1;" vertex="1" parent="1">
          <mxGeometry x="710" y="140" width="140" height="30" as="geometry" />
        </mxCell>
        <mxCell id="LjMTCCTFGMiPnI9_086--16" style="edgeStyle=orthogonalEdgeStyle;rounded=0;orthogonalLoop=1;jettySize=auto;html=1;exitX=0.5;exitY=1;exitDx=0;exitDy=0;entryX=0.5;entryY=0;entryDx=0;entryDy=0;" edge="1" parent="1" source="LjMTCCTFGMiPnI9_086--17" target="LjMTCCTFGMiPnI9_086--45">
          <mxGeometry relative="1" as="geometry">
            <mxPoint x="1000" y="640" as="targetPoint" />
            <Array as="points">
              <mxPoint x="950" y="260" />
              <mxPoint x="1061" y="260" />
              <mxPoint x="1061" y="410" />
              <mxPoint x="1000" y="410" />
              <mxPoint x="1000" y="610" />
              <mxPoint x="530" y="610" />
            </Array>
          </mxGeometry>
        </mxCell>
        <mxCell id="LjMTCCTFGMiPnI9_086--17" value="&lt;font style=&quot;font-size: 20px;&quot;&gt;Вывести x&lt;/font&gt;" style="shape=parallelogram;perimeter=parallelogramPerimeter;whiteSpace=wrap;html=1;fixedSize=1;" vertex="1" parent="1">
          <mxGeometry x="880" y="180" width="140" height="30" as="geometry" />
        </mxCell>
        <mxCell id="LjMTCCTFGMiPnI9_086--18" style="edgeStyle=orthogonalEdgeStyle;rounded=0;orthogonalLoop=1;jettySize=auto;html=1;entryX=0.5;entryY=0;entryDx=0;entryDy=0;" edge="1" parent="1" source="LjMTCCTFGMiPnI9_086--22" target="LjMTCCTFGMiPnI9_086--27">
          <mxGeometry relative="1" as="geometry" />
        </mxCell>
        <mxCell id="LjMTCCTFGMiPnI9_086--19" value="&lt;font style=&quot;font-size: 20px;&quot;&gt;False&lt;/font&gt;" style="edgeLabel;html=1;align=center;verticalAlign=middle;resizable=0;points=[];" vertex="1" connectable="0" parent="LjMTCCTFGMiPnI9_086--18">
          <mxGeometry x="-0.22" relative="1" as="geometry">
            <mxPoint y="5" as="offset" />
          </mxGeometry>
        </mxCell>
        <mxCell id="LjMTCCTFGMiPnI9_086--20" style="edgeStyle=orthogonalEdgeStyle;rounded=0;orthogonalLoop=1;jettySize=auto;html=1;entryX=0.5;entryY=0;entryDx=0;entryDy=0;" edge="1" parent="1" source="LjMTCCTFGMiPnI9_086--22" target="LjMTCCTFGMiPnI9_086--32">
          <mxGeometry relative="1" as="geometry" />
        </mxCell>
        <mxCell id="LjMTCCTFGMiPnI9_086--21" value="&lt;font style=&quot;font-size: 20px;&quot;&gt;True&lt;/font&gt;" style="edgeLabel;html=1;align=center;verticalAlign=middle;resizable=0;points=[];" vertex="1" connectable="0" parent="LjMTCCTFGMiPnI9_086--20">
          <mxGeometry x="-0.2319" y="1" relative="1" as="geometry">
            <mxPoint x="16" y="1" as="offset" />
          </mxGeometry>
        </mxCell>
        <mxCell id="LjMTCCTFGMiPnI9_086--22" value="&lt;font style=&quot;font-size: 20px;&quot;&gt;x &amp;lt; 3&lt;/font&gt;" style="rhombus;whiteSpace=wrap;html=1;" vertex="1" parent="1">
          <mxGeometry x="460" y="180" width="140" height="100" as="geometry" />
        </mxCell>
        <mxCell id="LjMTCCTFGMiPnI9_086--23" style="edgeStyle=orthogonalEdgeStyle;rounded=0;orthogonalLoop=1;jettySize=auto;html=1;entryX=0.5;entryY=0;entryDx=0;entryDy=0;" edge="1" parent="1" source="LjMTCCTFGMiPnI9_086--27" target="LjMTCCTFGMiPnI9_086--40">
          <mxGeometry relative="1" as="geometry" />
        </mxCell>
        <mxCell id="LjMTCCTFGMiPnI9_086--24" value="&lt;font style=&quot;font-size: 20px;&quot;&gt;True&lt;/font&gt;" style="edgeLabel;html=1;align=center;verticalAlign=middle;resizable=0;points=[];" vertex="1" connectable="0" parent="LjMTCCTFGMiPnI9_086--23">
          <mxGeometry x="-0.5431" y="-2" relative="1" as="geometry">
            <mxPoint x="35" y="-2" as="offset" />
          </mxGeometry>
        </mxCell>
        <mxCell id="LjMTCCTFGMiPnI9_086--25" style="edgeStyle=orthogonalEdgeStyle;rounded=0;orthogonalLoop=1;jettySize=auto;html=1;exitX=0.5;exitY=1;exitDx=0;exitDy=0;entryX=0.5;entryY=0;entryDx=0;entryDy=0;" edge="1" parent="1" source="LjMTCCTFGMiPnI9_086--27" target="LjMTCCTFGMiPnI9_086--44">
          <mxGeometry relative="1" as="geometry" />
        </mxCell>
        <mxCell id="LjMTCCTFGMiPnI9_086--26" value="&lt;font style=&quot;font-size: 20px;&quot;&gt;False&lt;/font&gt;" style="edgeLabel;html=1;align=center;verticalAlign=middle;resizable=0;points=[];" vertex="1" connectable="0" parent="LjMTCCTFGMiPnI9_086--25">
          <mxGeometry x="-0.1111" relative="1" as="geometry">
            <mxPoint as="offset" />
          </mxGeometry>
        </mxCell>
        <mxCell id="LjMTCCTFGMiPnI9_086--27" value="&lt;font style=&quot;font-size: 20px;&quot;&gt;x &amp;gt; 0&lt;/font&gt;" style="rhombus;whiteSpace=wrap;html=1;" vertex="1" parent="1">
          <mxGeometry x="460" y="340" width="140" height="45" as="geometry" />
        </mxCell>
        <mxCell id="LjMTCCTFGMiPnI9_086--28" style="edgeStyle=orthogonalEdgeStyle;rounded=0;orthogonalLoop=1;jettySize=auto;html=1;entryX=0.5;entryY=0;entryDx=0;entryDy=0;" edge="1" parent="1" source="LjMTCCTFGMiPnI9_086--32" target="LjMTCCTFGMiPnI9_086--34">
          <mxGeometry relative="1" as="geometry" />
        </mxCell>
        <mxCell id="LjMTCCTFGMiPnI9_086--29" value="&lt;font style=&quot;font-size: 20px;&quot;&gt;True&lt;br&gt;&lt;/font&gt;" style="edgeLabel;html=1;align=center;verticalAlign=middle;resizable=0;points=[];" vertex="1" connectable="0" parent="LjMTCCTFGMiPnI9_086--28">
          <mxGeometry x="-0.2719" y="2" relative="1" as="geometry">
            <mxPoint y="2" as="offset" />
          </mxGeometry>
        </mxCell>
        <mxCell id="LjMTCCTFGMiPnI9_086--30" style="edgeStyle=orthogonalEdgeStyle;rounded=0;orthogonalLoop=1;jettySize=auto;html=1;exitX=0.5;exitY=1;exitDx=0;exitDy=0;entryX=0.5;entryY=0;entryDx=0;entryDy=0;" edge="1" parent="1" source="LjMTCCTFGMiPnI9_086--32" target="LjMTCCTFGMiPnI9_086--36">
          <mxGeometry relative="1" as="geometry" />
        </mxCell>
        <mxCell id="LjMTCCTFGMiPnI9_086--31" value="&lt;font style=&quot;font-size: 20px;&quot;&gt;False&lt;br&gt;&lt;/font&gt;" style="edgeLabel;html=1;align=center;verticalAlign=middle;resizable=0;points=[];" vertex="1" connectable="0" parent="LjMTCCTFGMiPnI9_086--30">
          <mxGeometry x="-0.3579" y="1" relative="1" as="geometry">
            <mxPoint x="-1" y="6" as="offset" />
          </mxGeometry>
        </mxCell>
        <mxCell id="LjMTCCTFGMiPnI9_086--32" value="&lt;font style=&quot;font-size: 20px;&quot;&gt;x &amp;gt; 0&lt;br&gt;&lt;/font&gt;" style="rhombus;whiteSpace=wrap;html=1;" vertex="1" parent="1">
          <mxGeometry x="710" y="250" width="140" height="50" as="geometry" />
        </mxCell>
        <mxCell id="LjMTCCTFGMiPnI9_086--33" style="edgeStyle=orthogonalEdgeStyle;rounded=0;orthogonalLoop=1;jettySize=auto;html=1;entryX=0.5;entryY=0;entryDx=0;entryDy=0;" edge="1" parent="1" source="LjMTCCTFGMiPnI9_086--34" target="LjMTCCTFGMiPnI9_086--38">
          <mxGeometry relative="1" as="geometry" />
        </mxCell>
        <mxCell id="LjMTCCTFGMiPnI9_086--34" value="&lt;font style=&quot;font-size: 16px;&quot;&gt;x = lg(x) / cos(x) + cos(x)&lt;/font&gt;" style="whiteSpace=wrap;html=1;" vertex="1" parent="1">
          <mxGeometry x="880" y="300" width="140" height="40" as="geometry" />
        </mxCell>
        <mxCell id="LjMTCCTFGMiPnI9_086--35" style="edgeStyle=orthogonalEdgeStyle;rounded=0;orthogonalLoop=1;jettySize=auto;html=1;entryX=0.5;entryY=0;entryDx=0;entryDy=0;exitX=0.5;exitY=1;exitDx=0;exitDy=0;" edge="1" parent="1" source="LjMTCCTFGMiPnI9_086--36" target="LjMTCCTFGMiPnI9_086--45">
          <mxGeometry relative="1" as="geometry">
            <mxPoint x="780" y="640" as="targetPoint" />
            <Array as="points">
              <mxPoint x="780" y="590" />
              <mxPoint x="530" y="590" />
            </Array>
          </mxGeometry>
        </mxCell>
        <mxCell id="LjMTCCTFGMiPnI9_086--36" value="&lt;font style=&quot;font-size: 15px;&quot;&gt;Вывести &quot;Отрицательного логарифма не существует!&quot;&lt;/font&gt;" style="shape=parallelogram;perimeter=parallelogramPerimeter;whiteSpace=wrap;html=1;fixedSize=1;" vertex="1" parent="1">
          <mxGeometry x="710" y="350" width="140" height="110" as="geometry" />
        </mxCell>
        <mxCell id="LjMTCCTFGMiPnI9_086--37" style="edgeStyle=orthogonalEdgeStyle;rounded=0;orthogonalLoop=1;jettySize=auto;html=1;entryX=0.5;entryY=0;entryDx=0;entryDy=0;" edge="1" parent="1" source="LjMTCCTFGMiPnI9_086--38" target="LjMTCCTFGMiPnI9_086--45">
          <mxGeometry relative="1" as="geometry">
            <mxPoint x="710" y="650" as="targetPoint" />
            <Array as="points">
              <mxPoint x="951" y="600" />
              <mxPoint x="530" y="600" />
            </Array>
          </mxGeometry>
        </mxCell>
        <mxCell id="LjMTCCTFGMiPnI9_086--38" value="&lt;font style=&quot;font-size: 20px;&quot;&gt;Вывести x&lt;/font&gt;" style="shape=parallelogram;perimeter=parallelogramPerimeter;whiteSpace=wrap;html=1;fixedSize=1;" vertex="1" parent="1">
          <mxGeometry x="880" y="360" width="140" height="30" as="geometry" />
        </mxCell>
        <mxCell id="LjMTCCTFGMiPnI9_086--39" style="edgeStyle=orthogonalEdgeStyle;rounded=0;orthogonalLoop=1;jettySize=auto;html=1;entryX=0.5;entryY=0;entryDx=0;entryDy=0;" edge="1" parent="1" source="LjMTCCTFGMiPnI9_086--40" target="LjMTCCTFGMiPnI9_086--42">
          <mxGeometry relative="1" as="geometry" />
        </mxCell>
        <mxCell id="LjMTCCTFGMiPnI9_086--40" value="&lt;font style=&quot;font-size: 20px;&quot;&gt;x = lg(x) * e**x&lt;/font&gt;" style="whiteSpace=wrap;html=1;" vertex="1" parent="1">
          <mxGeometry x="610" y="470" width="140" height="30" as="geometry" />
        </mxCell>
        <mxCell id="LjMTCCTFGMiPnI9_086--41" style="edgeStyle=orthogonalEdgeStyle;rounded=0;orthogonalLoop=1;jettySize=auto;html=1;entryX=0.5;entryY=0;entryDx=0;entryDy=0;exitX=0.5;exitY=1;exitDx=0;exitDy=0;" edge="1" parent="1" source="LjMTCCTFGMiPnI9_086--42" target="LjMTCCTFGMiPnI9_086--45">
          <mxGeometry relative="1" as="geometry">
            <Array as="points">
              <mxPoint x="680" y="580" />
              <mxPoint x="530" y="580" />
            </Array>
          </mxGeometry>
        </mxCell>
        <mxCell id="LjMTCCTFGMiPnI9_086--42" value="&lt;font style=&quot;font-size: 20px;&quot;&gt;Вывести x&lt;/font&gt;" style="shape=parallelogram;perimeter=parallelogramPerimeter;whiteSpace=wrap;html=1;fixedSize=1;" vertex="1" parent="1">
          <mxGeometry x="610" y="535" width="140" height="30" as="geometry" />
        </mxCell>
        <mxCell id="LjMTCCTFGMiPnI9_086--43" style="edgeStyle=orthogonalEdgeStyle;rounded=0;orthogonalLoop=1;jettySize=auto;html=1;entryX=0.5;entryY=0;entryDx=0;entryDy=0;" edge="1" parent="1" source="LjMTCCTFGMiPnI9_086--44" target="LjMTCCTFGMiPnI9_086--45">
          <mxGeometry relative="1" as="geometry" />
        </mxCell>
        <mxCell id="LjMTCCTFGMiPnI9_086--44" value="&lt;font style=&quot;font-size: 15px;&quot;&gt;Вывести &quot;Отрицательного логарифма не существует!&quot;&lt;/font&gt;" style="shape=parallelogram;perimeter=parallelogramPerimeter;whiteSpace=wrap;html=1;fixedSize=1;" vertex="1" parent="1">
          <mxGeometry x="460" y="430" width="140" height="110" as="geometry" />
        </mxCell>
        <mxCell id="LjMTCCTFGMiPnI9_086--45" value="&lt;font style=&quot;&quot;&gt;&lt;font style=&quot;font-size: 25px;&quot;&gt;Конец f(x)&lt;/font&gt;&lt;br&gt;&lt;/font&gt;" style="rounded=1;whiteSpace=wrap;html=1;" vertex="1" parent="1">
          <mxGeometry x="460" y="630" width="140" height="60" as="geometry" />
        </mxCell>
      </root>
    </mxGraphModel>
  </diagram>
</mxfile>
